<svg xmlns="http://www.w3.org/2000/svg" viewBox="0 0 64 64" role="img" aria-label="AI Tool Trend Analysis favicon">
  <defs>
    <radialGradient id="halo" cx="72%" cy="18%" r="78%">
      <stop offset="0" stop-color="#38bdf8" stop-opacity="0.9"/>
      <stop offset="0.42" stop-color="#7c3aed" stop-opacity="0.34"/>
      <stop offset="1" stop-color="#030712" stop-opacity="0"/>
    </radialGradient>
    <linearGradient id="panel" x1="6" y1="8" x2="58" y2="58" gradientUnits="userSpaceOnUse">
      <stop offset="0" stop-color="#111827"/>
      <stop offset="0.52" stop-color="#0b1020"/>
      <stop offset="1" stop-color="#020617"/>
    </linearGradient>
    <linearGradient id="trend" x1="12" y1="50" x2="52" y2="16" gradientUnits="userSpaceOnUse">
      <stop offset="0" stop-color="#22d3ee"/>
      <stop offset="0.46" stop-color="#a855f7"/>
      <stop offset="1" stop-color="#f97316"/>
    </linearGradient>
    <filter id="glow" x="-40%" y="-40%" width="180%" height="180%">
      <feGaussianBlur stdDeviation="1.8" result="blur"/>
      <feMerge>
        <feMergeNode in="blur"/>
        <feMergeNode in="SourceGraphic"/>
      </feMerge>
    </filter>
  </defs>
  <rect width="64" height="64" rx="15" fill="url(#panel)"/>
  <rect width="64" height="64" rx="15" fill="url(#halo)"/>
  <path d="M10 18h44M10 32h44M10 46h44M18 10v44M32 10v44M46 10v44" stroke="#1f2937" stroke-width="1" opacity="0.55"/>
  <rect x="11" y="12" width="19" height="12" rx="6" fill="#0f172a" stroke="#334155"/>
  <path d="M16 20l3.2-6h2.1l3.1 6h-2.2l-.5-1.2h-3.1L18 20h-2zm3.2-2.8h1.8l-.9-2.2-.9 2.2zM26 14h2v6h-2z" fill="#e5e7eb"/>
  <path d="M13 48l8-10 8 4 8-13 8 3 7-15" fill="none" stroke="url(#trend)" stroke-width="5" stroke-linecap="round" stroke-linejoin="round" filter="url(#glow)"/>
  <circle cx="13" cy="48" r="3.8" fill="#22d3ee"/>
  <circle cx="21" cy="38" r="3.8" fill="#38bdf8"/>
  <circle cx="29" cy="42" r="3.8" fill="#a855f7"/>
  <circle cx="37" cy="29" r="3.8" fill="#c084fc"/>
  <circle cx="45" cy="32" r="3.8" fill="#fb923c"/>
  <circle cx="52" cy="17" r="4.4" fill="#f97316"/>
  <path d="M48 17h4v4" fill="none" stroke="#fff7ed" stroke-width="2" stroke-linecap="round" stroke-linejoin="round"/>
</svg>
